<svg width="1537" height="864" viewBox="0 0 1537 864" fill="none" xmlns="http://www.w3.org/2000/svg">
<rect width="1537" height="864" fill="#1F4188"/>
<path d="M1537 338C1481.77 338 1437 293.228 1437 238C1437 182.772 1481.77 138 1537 138" stroke="#F8911F" stroke-width="2"/>
<line y1="-1" x2="362.311" y2="-1" transform="matrix(0.924621 -0.380889 0.395063 0.918654 583 864)" stroke="white" stroke-width="2"/>
<line y1="-1" x2="351.573" y2="-1" transform="matrix(0.924416 -0.381386 0.395572 0.918435 644 864)" stroke="white" stroke-width="2"/>
<line y1="-1" x2="340.836" y2="-1" transform="matrix(0.924198 -0.381914 0.396113 0.918202 707 864)" stroke="white" stroke-width="2"/>
<line y1="-1" x2="235.938" y2="-1" transform="matrix(0.923971 -0.382463 0.402482 0.915428 814 92.2383)" stroke="white" stroke-width="2"/>
<line y1="-1" x2="247.587" y2="-1" transform="matrix(0.924927 -0.380144 0.400086 0.916478 865 96.1191)" stroke="white" stroke-width="2"/>
<line y1="-1" x2="258.312" y2="-1" transform="matrix(0.925238 -0.379386 0.399303 0.916819 918 100)" stroke="white" stroke-width="2"/>
<line y1="-1" x2="249.565" y2="-1" transform="matrix(0.922988 -0.384829 0.396324 0.91811 1 98.04)" stroke="white" stroke-width="2"/>
<line y1="-1" x2="315.137" y2="-1" transform="matrix(0.923955 -0.3825 0.393951 0.919132 1 122.541)" stroke="white" stroke-width="2"/>
<line y1="-1" x2="381.462" y2="-1" transform="matrix(0.922766 -0.38536 0.396865 0.917877 1 149)" stroke="white" stroke-width="2"/>
<path d="M1333.91 602.225L1334.19 616.508L1337.07 613.511L1337.04 611.83L1335.36 611.862L1335.28 607.662L1336.96 607.63L1336.92 605.529L1333.91 602.225Z" fill="white"/>
<path d="M1328.03 602.336L1331.81 602.264L1332.1 617.387L1328.32 617.459L1328.03 602.336Z" fill="white"/>
<path d="M1326.56 613.291L1326.43 606.149L1318.86 606.294L1322.32 611.27L1321.06 611.295L1315.92 606.349L1310.88 606.446L1315.18 611.407L1312.66 611.454L1307.94 606.502L1302.9 606.597L1306.78 611.567L1304.68 611.607L1299.54 606.662L1294.92 606.749L1298.37 611.727L1296.69 611.759L1291.56 606.814L1288.62 606.87L1279.45 610.827L1288.75 614.012L1326.56 613.291Z" fill="white"/>
<path d="M1333.91 602.225L1334.19 616.508L1337.07 613.511L1337.04 611.83L1335.36 611.862L1335.28 607.662L1336.96 607.63L1336.92 605.529L1333.91 602.225Z" stroke="white" stroke-width="1.57"/>
<path d="M1328.03 602.336L1331.81 602.264L1332.1 617.387L1328.32 617.459L1328.03 602.336Z" stroke="white" stroke-width="1.57"/>
<path d="M1326.56 613.291L1326.43 606.149L1318.86 606.294L1322.32 611.27L1321.06 611.295L1315.92 606.349L1310.88 606.446L1315.18 611.407L1312.66 611.454L1307.94 606.502L1302.9 606.597L1306.78 611.567L1304.68 611.607L1299.54 606.662L1294.92 606.749L1298.37 611.727L1296.69 611.759L1291.56 606.814L1288.62 606.87L1279.45 610.827L1288.75 614.012L1326.56 613.291Z" stroke="white" stroke-width="1.57"/>
<path fill-rule="evenodd" clip-rule="evenodd" d="M1163.37 516.916L1172.4 516.896L1175.69 511.775L1172.37 506.669L1163.35 506.688C1165.46 503.255 1167.11 501.943 1170.86 500.656L1176.27 500.644C1179.69 501.806 1181.14 502.717 1182.3 505.143L1228.92 505.041C1230.91 502.218 1232.41 501.41 1235.53 500.816L1241.85 500.802C1245.47 502.404 1246.94 503.611 1248.18 506.503L1239.76 506.522L1236.16 511.343L1239.78 517.05L1248.2 517.032C1246.69 519.786 1245.49 521.138 1241.9 522.761L1235.58 522.775C1232.12 521.821 1230.73 520.777 1228.95 518.277L1182.33 518.379C1181.24 520.981 1179.69 521.905 1176.32 523.205L1170.91 523.217C1166.58 521.197 1164.94 519.813 1163.37 516.916ZM1222.33 514.982L1191.04 515.051L1188.33 512.65L1188.33 511.748L1188.33 510.845L1191.03 508.733L1222.31 508.665L1225.33 511.366L1225.33 512.269L1222.33 514.982Z" fill="white"/>
<path d="M1128.04 253.428H1026.36V273.596H1033.92V268.134H1036.03V273.596H1041.07V268.134H1043.59V273.596H1048.63V268.134H1050.73V273.596H1056.19V268.134H1058.29V273.596H1062.92V268.134H1065.44V273.596H1070.48V268.134H1073V273.596H1077.62V268.134H1080.56V273.596H1084.76V268.134H1087.29V273.596H1092.33V268.134H1094.85V273.596H1099.47V268.134H1101.99V273.596H1107.03V268.134H1109.13V273.596H1114.18V268.134H1116.7V273.596H1121.32V268.134H1124.26V273.596H1129.3V268.134H1131.4V273.596H1136.45V268.134H1138.13V273.596H1143.17V268.134H1145.69V273.596H1150.73V268.134H1153.25V273.596H1157.87V268.134H1160.39V273.596H1165.02V268.134H1167.54V273.596H1172.58V268.134H1174.68V273.596H1180.14V268.134H1182.66V273.596H1187.29V268.134H1189.39V273.596H1194.85V268.134H1196.95V273.596H1201.99V268.134H1204.09V273.596H1209.13V268.134H1211.24V273.596H1216.28V268.134H1218.8V273.596H1223.42V268.134H1225.94V273.596H1230.56V268.134H1233.08V273.596H1237.71V268.134H1240.65V273.596H1245.69V268.134H1248.21V273.596H1252.83V268.134H1255.35V273.596H1260.39V268.134H1262.5V273.596H1267.54V268.134H1269.64V273.596H1274.68V268.134H1277.2V273.596H1281.82V268.134H1284.34V273.596H1289.39V268.134H1291.91V273.596H1297.37V268.134H1299.47V273.596H1304.51V268.134H1306.61V273.596H1315.44V253.428H1212.5C1213.4 260.228 1212.03 262.65 1206.61 264.772H1134.34C1130.52 263.566 1129.46 260.332 1128.04 253.428Z" fill="white"/>
<path fill-rule="evenodd" clip-rule="evenodd" d="M1136.87 250.907H1204.09C1205.3 251.967 1206.23 252.939 1206.89 253.848C1208.41 256.895 1207.69 259.237 1204.09 261.832H1136.87C1132.77 257.874 1132.33 255.515 1136.87 250.907ZM1165.86 255.949L1170.9 253.008L1175.52 255.949L1170.9 258.89L1165.86 255.949Z" fill="white"/>
<path d="M1170.06 571.226V576.807L1186.01 580.529L1195.4 576.807H1256.4V571.226H1195.4L1186.01 567.504L1170.06 571.226Z" fill="white"/>
<path fill-rule="evenodd" clip-rule="evenodd" d="M1260.15 567.505V580.53L1269.53 587.043H1345.55L1354.93 578.67V567.505L1345.55 560.992H1269.53L1260.15 567.505ZM1275.16 571.227V565.644H1308.01H1340.86V571.227H1275.16ZM1275.16 576.808V582.39H1340.86V576.808H1275.16Z" fill="white"/>
<path d="M1170.06 571.226V576.807L1186.01 580.529L1195.4 576.807H1256.4V571.226H1195.4L1186.01 567.504L1170.06 571.226Z" stroke="white" stroke-width="1.57"/>
<path fill-rule="evenodd" clip-rule="evenodd" d="M1260.15 567.505V580.53L1269.53 587.043H1345.55L1354.93 578.67V567.505L1345.55 560.992H1269.53L1260.15 567.505ZM1275.16 571.227V565.644H1308.01H1340.86V571.227H1275.16ZM1275.16 576.808V582.39H1340.86V576.808H1275.16Z" stroke="white" stroke-width="1.57"/>
<path d="M1378.46 304.688H1295.27L1336.87 278.638L1378.46 304.688Z" fill="white"/>
<path fill-rule="evenodd" clip-rule="evenodd" d="M1373.42 307.63H1300.73V355.949H1344.85V330.319C1351.71 330.459 1365.44 330.655 1365.44 330.319V355.949H1373.42V307.63ZM1308.29 317.714H1316.7V325.697H1308.29V317.714ZM1318.8 325.697V317.714H1327.2V325.697H1318.8ZM1318.8 329.058H1327.2V337.462H1318.8V329.058ZM1316.7 329.058H1308.29V337.462H1316.7V329.058Z" fill="white"/>
<path d="M1155.35 421.888V371.888C1129.78 382.951 1123.12 394.593 1120.48 421.888H1155.35Z" fill="white"/>
<path d="M1186.87 421.888V371.888C1210.11 383.698 1217.57 394.784 1221.74 421.888H1186.87Z" fill="white"/>
<path fill-rule="evenodd" clip-rule="evenodd" d="M1160.39 298.358V326.93C1160.39 327.266 1163.48 327.069 1165.02 326.93V291.635C1170.17 289.993 1173.11 289.992 1178.46 291.635V326.93H1182.24V298.358C1197.56 306.056 1201.43 312.723 1203.67 326.93H1209.55V335.333H1203.67V350.459C1197.27 364.979 1191.3 369.54 1178.46 374.409C1173.21 375.755 1170.27 375.83 1165.02 374.409C1150.45 369.842 1144.91 364.525 1139.39 350.459V335.333H1133.5V326.93H1139.39C1140.07 310.898 1145.21 304.995 1160.39 298.358ZM1197.37 337.854H1145.27V350.459C1150.73 361.13 1154.98 365.13 1165.02 368.106C1170.27 369.227 1173.21 369.188 1178.46 368.106C1188.49 363.315 1192.96 359.28 1197.37 347.938V337.854Z" fill="white"/>
<path d="M980.143 492.978H948.21L951.571 513.896H976.781L980.143 492.978Z" fill="white"/>
<path d="M971.319 516.687H957.454L956.54 522.265H962.094V538.302H966.259V522.265H972.507L971.319 516.687Z" fill="white"/>
<path d="M956.54 472.757C954.915 471.098 954.001 470.961 952.375 472.757V489.493H956.54V472.757Z" fill="white"/>
<path d="M975.283 472.756C973.657 471.436 972.745 471.296 971.118 472.756V489.491H975.283V472.756Z" fill="white"/>
<path d="M980.143 492.978H948.21L951.571 513.896H976.781L980.143 492.978Z" stroke="white" stroke-width="1.57"/>
<path d="M971.319 516.687H957.454L956.54 522.265H962.094V538.302H966.259V522.265H972.507L971.319 516.687Z" stroke="white" stroke-width="1.57"/>
<path d="M956.54 472.757C954.915 471.098 954.001 470.961 952.375 472.757V489.493H956.54V472.757Z" stroke="white" stroke-width="1.57"/>
<path d="M975.283 472.756C973.657 471.436 972.745 471.296 971.118 472.756V489.491H975.283V472.756Z" stroke="white" stroke-width="1.57"/>
<path d="M983.504 319.814H959.134V327.911H983.504V319.814Z" fill="white"/>
<path d="M975.381 330.403H967.258V370.265L969.132 397.047L971.632 425.697L974.131 397.047L975.381 370.265V330.403Z" fill="white"/>
<path d="M983.504 319.814H959.134V327.911H983.504V319.814Z" stroke="white" stroke-width="1.57"/>
<path d="M975.381 330.403H967.258V370.265L969.132 397.047L971.632 425.697L974.131 397.047L975.381 370.265V330.403Z" stroke="white" stroke-width="1.57"/>
<path d="M1280.14 657.771L1280.27 641.386L1274.81 641.343L1274.68 657.729L1280.14 657.771Z" fill="white"/>
<path d="M1273.04 652.254L1273.08 646.792L1246.19 646.58L1228.12 647.699L1208.78 649.227L1228.09 651.06L1246.15 652.042L1273.04 652.254Z" fill="white"/>
<path d="M1280.14 657.771L1280.27 641.386L1274.81 641.343L1274.68 657.729L1280.14 657.771Z" stroke="white" stroke-width="1.57"/>
<path d="M1273.04 652.254L1273.08 646.792L1246.19 646.58L1228.12 647.699L1208.78 649.227L1228.09 651.06L1246.15 652.042L1273.04 652.254Z" stroke="white" stroke-width="1.57"/>
<path d="M1149.08 244.133L1149.01 232.115L1146.55 234.604L1146.55 236.018L1147.97 236.01L1147.99 239.544L1146.57 239.553L1146.59 241.32L1149.08 244.133Z" fill="white"/>
<path d="M1154.08 244.548L1150.9 244.567L1150.83 231.842L1154.01 231.823L1154.08 244.548Z" fill="white"/>
<path d="M1155.44 235.348L1155.48 241.357L1161.84 241.32L1158.99 237.095L1160.05 237.089L1164.32 241.305L1168.56 241.28L1165 237.059L1167.12 237.047L1171.03 241.265L1175.27 241.24L1172.07 237.017L1173.84 237.007L1178.1 241.224L1181.99 241.2L1179.14 236.976L1180.55 236.967L1184.82 241.184L1187.29 241.169L1195.05 237.942L1187.26 235.16L1155.44 235.348Z" fill="white"/>
<path d="M1149.08 244.133L1149.01 232.115L1146.55 234.604L1146.55 236.018L1147.97 236.01L1147.99 239.544L1146.57 239.553L1146.59 241.32L1149.08 244.133Z" stroke="white" stroke-width="1.57"/>
<path d="M1154.08 244.548L1150.9 244.567L1150.83 231.842L1154.01 231.823L1154.08 244.548Z" stroke="white" stroke-width="1.57"/>
<path d="M1155.44 235.348L1155.48 241.357L1161.84 241.32L1158.99 237.095L1160.05 237.089L1164.32 241.305L1168.56 241.28L1165 237.059L1167.12 237.047L1171.03 241.265L1175.27 241.24L1172.07 237.017L1173.84 237.007L1178.1 241.224L1181.99 241.2L1179.14 236.976L1180.55 236.967L1184.82 241.184L1187.29 241.169L1195.05 237.942L1187.26 235.16L1155.44 235.348Z" stroke="white" stroke-width="1.57"/>
<path d="M1085.25 306.79H1076.43V364.773H1085.25V306.79Z" fill="white"/>
<path d="M1087.77 374.436H1074.33C1073.63 371.467 1073.9 370.026 1076.43 368.134H1085.25C1088.02 370.14 1088.14 371.629 1087.77 374.436Z" fill="white"/>
<path d="M1087.77 377.799H1074.33V421.916H1087.77V377.799Z" fill="white"/>
<path d="M1074.33 425.277L1072.65 428.639C1073.95 431.918 1074.55 432.246 1075.59 432.42H1086.09C1087.74 431.355 1088.46 430.591 1089.04 428.639L1087.77 425.277H1074.33Z" fill="white"/>
<path d="M1085.25 303.848H1076.43C1071.68 296.785 1066.78 296.953 1053.32 305.949C1052.71 296.802 1056.05 292.721 1067.61 287.041H1085.25C1083.99 287.041 1086.93 290.402 1086.93 290.402L1090.72 292.083H1094.08V289.562C1096.46 289.702 1101.22 289.898 1101.22 289.562V303.848H1094.08V300.907L1092.82 299.646H1088.19L1085.25 303.848Z" fill="white"/>
<path d="M1085.25 306.79H1076.43V364.773H1085.25V306.79Z" stroke="white" stroke-width="1.57"/>
<path d="M1087.77 374.436H1074.33C1073.63 371.467 1073.9 370.026 1076.43 368.134H1085.25C1088.02 370.14 1088.14 371.629 1087.77 374.436Z" stroke="white" stroke-width="1.57"/>
<path d="M1087.77 377.799H1074.33V421.916H1087.77V377.799Z" stroke="white" stroke-width="1.57"/>
<path d="M1074.33 425.277L1072.65 428.639C1073.95 431.918 1074.55 432.246 1075.59 432.42H1086.09C1087.74 431.355 1088.46 430.591 1089.04 428.639L1087.77 425.277H1074.33Z" stroke="white" stroke-width="1.57"/>
<path d="M1085.25 303.848H1076.43C1071.68 296.785 1066.78 296.953 1053.32 305.949C1052.71 296.802 1056.05 292.721 1067.61 287.041H1085.25C1083.99 287.041 1086.93 290.402 1086.93 290.402L1090.72 292.083H1094.08V289.562C1096.46 289.702 1101.22 289.898 1101.22 289.562V303.848H1094.08V300.907L1092.82 299.646H1088.19L1085.25 303.848Z" stroke="white" stroke-width="1.57"/>
<path d="M986.866 526.118H1001.15L998.21 523.177H996.53V524.857H992.328V523.177H990.227L986.866 526.118Z" fill="white"/>
<path d="M986.866 532V528.219H1001.99V532H986.866Z" fill="white"/>
<path d="M997.79 533.681H990.647V541.244L995.689 537.882V539.143L990.647 544.185V549.227L995.689 545.025V547.546L990.647 552.168V557.21L995.689 553.429V555.529L990.647 560.571V565.193L995.689 561.832V563.513L990.647 568.555V571.496L994.429 580.739L997.79 571.496V533.681Z" fill="white"/>
<path d="M986.866 526.118H1001.15L998.21 523.177H996.53V524.857H992.328V523.177H990.227L986.866 526.118Z" stroke="white" stroke-width="1.57"/>
<path d="M986.866 532V528.219H1001.99V532H986.866Z" stroke="white" stroke-width="1.57"/>
<path d="M997.79 533.681H990.647V541.244L995.689 537.882V539.143L990.647 544.185V549.227L995.689 545.025V547.546L990.647 552.168V557.21L995.689 553.429V555.529L990.647 560.571V565.193L995.689 561.832V563.513L990.647 568.555V571.496L994.429 580.739L997.79 571.496V533.681Z" stroke="white" stroke-width="1.57"/>
<path d="M1229.27 533.914H1168.38V545.865H1172.91V542.628H1174.17V545.865H1177.18V542.628H1178.69V545.865H1181.71V542.628H1182.97V545.865H1186.24V542.628H1187.5V545.865H1190.27V542.628H1191.78V545.865H1194.8V542.628H1196.31V545.865H1199.07V542.628H1200.84V545.865H1203.35V542.628H1204.86V545.865H1207.88V542.628H1209.39V545.865H1212.16V542.628H1213.67V545.865H1216.69V542.628H1217.95V545.865H1220.96V542.628H1222.47V545.865H1225.24V542.628H1227V545.865H1230.02V542.628H1231.28V545.865H1234.3V542.628H1235.31V545.865H1238.33V542.628H1239.84V545.865H1242.86V542.628H1244.36V545.865H1247.13V542.628H1248.64V545.865H1251.41V542.628H1252.92V545.865H1255.94V542.628H1257.2V545.865H1260.47V542.628H1261.98V545.865H1264.75V542.628H1266V545.865H1269.27V542.628H1270.53V545.865H1273.55V542.628H1274.81V545.865H1277.83V542.628H1279.09V545.865H1282.11V542.628H1283.62V545.865H1286.38V542.628H1287.89V545.865H1290.66V542.628H1292.17V545.865H1294.94V542.628H1296.7V545.865H1299.72V542.628H1301.23V545.865H1304V542.628H1305.51V545.865H1308.53V542.628H1309.78V545.865H1312.8V542.628H1314.06V545.865H1317.08V542.628H1318.59V545.865H1321.36V542.628H1322.87V545.865H1325.89V542.628H1327.4V545.865H1330.67V542.628H1331.93V545.865H1334.95V542.628H1336.2V545.865H1341.49V533.914H1279.84C1280.39 537.943 1279.56 539.379 1276.32 540.637H1233.04C1230.75 539.922 1230.12 538.005 1229.27 533.914Z" fill="white"/>
<path fill-rule="evenodd" clip-rule="evenodd" d="M1234.55 532.42H1274.81C1275.53 533.048 1276.09 533.624 1276.49 534.163C1277.4 535.969 1276.96 537.356 1274.81 538.894H1234.55C1232.1 536.549 1231.84 535.15 1234.55 532.42ZM1251.91 535.408L1254.93 533.664L1257.7 535.408L1254.93 537.151L1251.91 535.408Z" fill="white"/>
<path fill-rule="evenodd" clip-rule="evenodd" d="M1229.75 206.791L1217.14 206.83L1212.55 213.987L1217.19 221.116L1229.8 221.076C1226.85 225.874 1224.55 227.71 1219.32 229.512L1211.75 229.536C1206.98 227.918 1204.95 226.647 1203.33 223.26L1138.21 223.464C1135.44 227.412 1133.33 228.542 1128.98 229.376L1120.16 229.403C1115.09 227.17 1113.04 225.487 1111.31 221.448L1123.07 221.411L1128.09 214.673L1123.03 206.705L1111.26 206.742C1113.36 202.894 1115.04 201.004 1120.06 198.731L1128.88 198.704C1133.72 200.032 1135.66 201.487 1138.15 204.977L1203.27 204.773C1204.79 201.136 1206.95 199.844 1211.65 198.024L1219.22 198C1225.26 200.815 1227.56 202.746 1229.75 206.791ZM1147.41 209.57L1191.1 209.433L1194.89 212.782L1194.9 214.043L1194.9 215.303L1191.13 218.256L1147.43 218.393L1143.22 214.625L1143.22 213.365L1147.41 209.57Z" fill="white"/>
<path fill-rule="evenodd" clip-rule="evenodd" d="M1255.57 287.041V301.166L1263.57 306.345L1271.57 301.166V287.041C1276.93 290.354 1278.98 292.941 1280.98 298.812V307.286C1279.15 312.632 1277.72 314.901 1273.92 316.703V389.681C1278.34 392.798 1279.59 395.159 1280.51 400.039V409.927C1277.99 415.598 1276.1 417.886 1271.57 419.814V406.631L1264.04 400.981L1255.1 406.631V419.814C1250.8 417.447 1248.69 415.564 1246.16 409.927V400.039C1247.66 394.624 1249.3 392.456 1253.22 389.681V316.703C1249.15 314.986 1247.71 312.561 1245.69 307.286V298.812C1248.86 292.051 1251.03 289.481 1255.57 287.041ZM1258.4 379.323V330.357L1262.16 326.12H1263.57H1264.98L1268.28 330.357V379.323L1264.04 384.031H1262.63L1258.4 379.323Z" fill="white"/>
<path d="M1353.34 420.656H1290.32C1287.89 422.846 1288.03 423.938 1290.32 425.698H1353.34C1355.08 424.132 1355.52 423.129 1353.34 420.656Z" fill="white"/>
<path fill-rule="evenodd" clip-rule="evenodd" d="M1290.74 427.799H1300.82V440.824L1298.72 457.631C1298.66 460.227 1298.69 461.551 1299.14 463.093C1299.65 464.567 1300.11 465.111 1301.24 465.614H1302.92C1304.02 464.682 1304.32 464.123 1304.6 463.093C1305.1 460.965 1305.13 459.769 1305.02 457.631L1303.34 440.824V427.799H1352.5V496.286H1290.32V427.799H1290.74ZM1309.65 482.421V439.143H1347.46V482.421H1309.65Z" fill="white"/>
<path fill-rule="evenodd" clip-rule="evenodd" d="M1291.58 418.555H1294.52H1349.56H1352.08C1348.88 400.136 1343.23 393.633 1326.45 388.723C1322.67 388.176 1320.81 388.162 1318.05 388.723C1301.31 393.572 1295.19 399.756 1291.58 418.555ZM1318.89 391.244C1302.07 394.746 1297.57 401.962 1294.1 416.874H1349.98C1346.36 403.617 1344.14 396.289 1325.61 391.244C1322.99 390.819 1321.52 390.787 1318.89 391.244Z" fill="white"/>
<path d="M1353.34 420.656H1290.32C1287.89 422.846 1288.03 423.938 1290.32 425.698H1353.34C1355.08 424.132 1355.52 423.129 1353.34 420.656Z" stroke="white" stroke-width="1.57"/>
<path fill-rule="evenodd" clip-rule="evenodd" d="M1290.74 427.799H1300.82V440.824L1298.72 457.631C1298.66 460.227 1298.69 461.551 1299.14 463.093C1299.65 464.567 1300.11 465.111 1301.24 465.614H1302.92C1304.02 464.682 1304.32 464.123 1304.6 463.093C1305.1 460.965 1305.13 459.769 1305.02 457.631L1303.34 440.824V427.799H1352.5V496.286H1290.32V427.799H1290.74ZM1309.65 482.421V439.143H1347.46V482.421H1309.65Z" stroke="white" stroke-width="1.57"/>
<path fill-rule="evenodd" clip-rule="evenodd" d="M1291.58 418.555H1294.52H1349.56H1352.08C1348.88 400.136 1343.23 393.633 1326.45 388.723C1322.67 388.176 1320.81 388.162 1318.05 388.723C1301.31 393.572 1295.19 399.756 1291.58 418.555ZM1318.89 391.244C1302.07 394.746 1297.57 401.962 1294.1 416.874H1349.98C1346.36 403.617 1344.14 396.289 1325.61 391.244C1322.99 390.819 1321.52 390.787 1318.89 391.244Z" stroke="white" stroke-width="1.57"/>
<path d="M1206.19 249.129V244.186H1242.65V245.112H1207.43V249.129H1206.19Z" fill="white"/>
<path d="M1133.08 248.387V244.186H1095.27V244.973H1131.8V248.387H1133.08Z" fill="white"/>
<path fill-rule="evenodd" clip-rule="evenodd" d="M1244.85 216.736V245.779H1274.51C1276.99 244.608 1277.79 243.228 1278.53 239.909V226.932C1276.32 219.003 1273.17 215.969 1264.62 212.72C1259.43 212.086 1256.53 212.109 1251.34 212.72C1247.7 213.304 1246.38 214.275 1244.85 216.736ZM1268.79 230.406C1268.88 225.713 1264.84 222.105 1260.14 222.064C1255.41 222.022 1251.25 225.67 1251.34 230.406C1251.42 235.059 1255.49 238.48 1260.14 238.439C1264.75 238.398 1268.71 235.015 1268.79 230.406ZM1260.14 225.771C1262.88 225.771 1265.31 227.672 1265.39 230.406C1265.48 233.221 1262.96 235.349 1260.14 235.349C1257.33 235.349 1254.8 233.221 1254.89 230.406C1254.98 227.672 1257.41 225.771 1260.14 225.771Z" fill="white"/>
<path fill-rule="evenodd" clip-rule="evenodd" d="M1092.75 216.748V245.866H1063.14C1060.67 244.692 1059.87 243.309 1059.13 239.981V226.97C1061.34 219.02 1064.48 215.979 1073.01 212.721C1078.19 212.085 1081.09 212.109 1086.27 212.721C1089.9 213.307 1091.22 214.28 1092.75 216.748ZM1068.85 230.453C1068.76 225.748 1072.8 222.13 1077.48 222.089C1082.21 222.047 1086.36 225.705 1086.27 230.453C1086.18 235.119 1082.13 238.548 1077.48 238.507C1072.88 238.466 1068.94 235.074 1068.85 230.453ZM1077.48 225.806C1074.75 225.806 1072.33 227.712 1072.24 230.453C1072.15 233.276 1074.67 235.409 1077.48 235.409C1080.29 235.409 1082.82 233.276 1082.73 230.453C1082.64 227.712 1080.21 225.806 1077.48 225.806Z" fill="white"/>
<path d="M1377.62 374.857H1373.84L1362.5 425.278H1366.28L1369.22 411.412H1383.08L1380.56 425.278H1383.92L1386.87 411.412L1385.61 404.689L1383.92 407.631H1370.06L1372.16 398.387H1383.92L1383.08 394.605H1373L1375.1 385.782H1380.56L1379.72 381.58H1375.94L1377.62 374.857Z" fill="white"/>
<path d="M1400.73 373.177H1373C1372.72 372.756 1372.16 371.244 1372.16 368.555H1401.57V371.916L1400.73 373.177Z" fill="white"/>
<path d="M1373 366.874L1373.84 365.193H1400.73L1401.57 366.874H1373Z" fill="white"/>
<path fill-rule="evenodd" clip-rule="evenodd" d="M1383.08 374.857H1379.72H1379.3L1391.91 425.278H1395.69L1391.91 411.412H1406.19L1409.97 425.278H1413.34L1401.57 374.857H1397.79L1399.05 381.58H1384.76L1383.08 374.857ZM1385.61 385.782L1387.71 394.185H1401.57L1399.89 385.782H1385.61ZM1402.83 398.387H1388.97L1391.07 407.631H1405.35L1402.83 398.387Z" fill="white"/>
<path d="M1377.62 374.857H1373.84L1362.5 425.278H1366.28L1369.22 411.412H1383.08L1380.56 425.278H1383.92L1386.87 411.412L1385.61 404.689L1383.92 407.631H1370.06L1372.16 398.387H1383.92L1383.08 394.605H1373L1375.1 385.782H1380.56L1379.72 381.58H1375.94L1377.62 374.857Z" stroke="white" stroke-width="1.57"/>
<path d="M1400.73 373.177H1373C1372.72 372.756 1372.16 371.244 1372.16 368.555H1401.57V371.916L1400.73 373.177Z" stroke="white" stroke-width="1.57"/>
<path d="M1373 366.874L1373.84 365.193H1400.73L1401.57 366.874H1373Z" stroke="white" stroke-width="1.57"/>
<path fill-rule="evenodd" clip-rule="evenodd" d="M1383.08 374.857H1379.72H1379.3L1391.91 425.278H1395.69L1391.91 411.412H1406.19L1409.97 425.278H1413.34L1401.57 374.857H1397.79L1399.05 381.58H1384.76L1383.08 374.857ZM1385.61 385.782L1387.71 394.185H1401.57L1399.89 385.782H1385.61ZM1402.83 398.387H1388.97L1391.07 407.631H1405.35L1402.83 398.387Z" stroke="white" stroke-width="1.57"/>
<path d="M944.429 366.033H941.908L940.227 373.176L941.908 377.378V404.689H944.429V377.378L946.109 373.176L944.429 366.033Z" fill="white"/>
<path fill-rule="evenodd" clip-rule="evenodd" d="M946.109 406.37H940.227L937.286 410.572V444.605L941.067 448.807H946.109L949.05 444.605V410.572L946.109 406.37ZM944.428 413.093H946.949V442.505H944.428V413.093ZM941.907 413.093H939.386V442.505H941.907V413.093Z" fill="white"/>
<path d="M944.429 366.033H941.908L940.227 373.176L941.908 377.378V404.689H944.429V377.378L946.109 373.176L944.429 366.033Z" stroke="white" stroke-width="1.57"/>
<path fill-rule="evenodd" clip-rule="evenodd" d="M946.109 406.37H940.227L937.286 410.572V444.605L941.067 448.807H946.109L949.05 444.605V410.572L946.109 406.37ZM944.428 413.093H946.949V442.505H944.428V413.093ZM941.907 413.093H939.386V442.505H941.907V413.093Z" stroke="white" stroke-width="1.57"/>
<path d="M1363.88 514.392H1368.83V542.881H1363.88V514.392Z" fill="white"/>
<path d="M1362.47 547.629H1370.01C1370.4 546.17 1370.25 545.462 1368.83 544.532H1363.88C1362.33 545.518 1362.26 546.25 1362.47 547.629Z" fill="white"/>
<path d="M1362.47 549.28H1370.01V570.956H1362.47V549.28Z" fill="white"/>
<path d="M1370.01 572.608L1370.95 574.26C1370.22 575.871 1369.88 576.032 1369.3 576.118H1363.41C1362.49 575.594 1362.08 575.218 1361.76 574.26L1362.47 572.608H1370.01Z" fill="white"/>
<path d="M1363.88 512.947H1368.83C1371.49 509.477 1374.24 509.559 1381.78 513.979C1382.13 509.485 1380.26 507.48 1373.78 504.689H1363.88C1364.59 504.689 1362.94 506.341 1362.94 506.341L1360.82 507.167H1358.94V505.928C1357.6 505.997 1354.93 506.094 1354.93 505.928V512.947H1358.94V511.502L1359.64 510.883H1362.23L1363.88 512.947Z" fill="white"/>
<path d="M1363.88 514.392H1368.83V542.881H1363.88V514.392Z" stroke="white" stroke-width="1.57"/>
<path d="M1362.47 547.629H1370.01C1370.4 546.17 1370.25 545.462 1368.83 544.532H1363.88C1362.33 545.518 1362.26 546.25 1362.47 547.629Z" stroke="white" stroke-width="1.57"/>
<path d="M1362.47 549.28H1370.01V570.956H1362.47V549.28Z" stroke="white" stroke-width="1.57"/>
<path d="M1370.01 572.608L1370.95 574.26C1370.22 575.871 1369.88 576.032 1369.3 576.118H1363.41C1362.49 575.594 1362.08 575.218 1361.76 574.26L1362.47 572.608H1370.01Z" stroke="white" stroke-width="1.57"/>
<path d="M1363.88 512.947H1368.83C1371.49 509.477 1374.24 509.559 1381.78 513.979C1382.13 509.485 1380.26 507.48 1373.78 504.689H1363.88C1364.59 504.689 1362.94 506.341 1362.94 506.341L1360.82 507.167H1358.94V505.928C1357.6 505.997 1354.93 506.094 1354.93 505.928V512.947H1358.94V511.502L1359.64 510.883H1362.23L1363.88 512.947Z" stroke="white" stroke-width="1.57"/>
<path d="M1406.19 446.157L1376.89 435.782C1376.43 455.576 1377.01 466.116 1387.63 478.516H1395.2C1402.45 469.829 1404.95 462.872 1406.19 446.157Z" fill="white"/>
<path d="M1392.52 479.75H1389.83V481.973L1393.98 485.679V491.606H1396.91V484.443L1392.52 480.985V479.75Z" fill="white"/>
<path d="M1398.62 492.842H1392.52V497.535H1398.62V492.842Z" fill="white"/>
<path fill-rule="evenodd" clip-rule="evenodd" d="M1390.81 498.771H1400.82L1404 514.579V518.038L1399.36 521.496H1392.52L1387.63 518.038V514.579L1390.81 498.771ZM1396.91 510.874H1394.72C1393.67 512.128 1393.08 512.831 1392.03 514.086V516.308C1392.03 516.308 1393.67 517.814 1394.72 518.779H1396.91L1399.36 516.308V514.086L1396.91 510.874Z" fill="white"/>
<path d="M1406.19 446.157L1376.89 435.782C1376.43 455.576 1377.01 466.116 1387.63 478.516H1395.2C1402.45 469.829 1404.95 462.872 1406.19 446.157Z" stroke="white" stroke-width="1.57"/>
<path d="M1392.52 479.75H1389.83V481.973L1393.98 485.679V491.606H1396.91V484.443L1392.52 480.985V479.75Z" stroke="white" stroke-width="1.57"/>
<path d="M1398.62 492.842H1392.52V497.535H1398.62V492.842Z" stroke="white" stroke-width="1.57"/>
<path fill-rule="evenodd" clip-rule="evenodd" d="M1390.81 498.771H1400.82L1404 514.579V518.038L1399.36 521.496H1392.52L1387.63 518.038V514.579L1390.81 498.771ZM1396.91 510.874H1394.72C1393.67 512.128 1393.08 512.831 1392.03 514.086V516.308C1392.03 516.308 1393.67 517.814 1394.72 518.779H1396.91L1399.36 516.308V514.086L1396.91 510.874Z" stroke="white" stroke-width="1.57"/>
<path d="M1036.45 528.466L1021.37 523.177C1021.14 533.268 1021.44 538.641 1026.9 544.962H1030.79C1034.52 540.534 1035.8 536.987 1036.45 528.466Z" fill="white"/>
<path d="M1029.41 545.592H1028.03V546.725L1030.17 548.614V551.636H1031.67V547.985L1029.41 546.222V545.592Z" fill="white"/>
<path d="M1032.55 552.266H1029.41V554.658H1032.55V552.266Z" fill="white"/>
<path fill-rule="evenodd" clip-rule="evenodd" d="M1028.53 555.289H1033.68L1035.32 563.349V565.112L1032.93 566.875H1029.41L1026.9 565.112V563.349L1028.53 555.289ZM1031.67 561.46H1030.54L1029.16 563.097V564.23L1030.54 565.49H1031.67L1032.93 564.23V563.097L1031.67 561.46Z" fill="white"/>
<path d="M1036.45 528.466L1021.37 523.177C1021.14 533.268 1021.44 538.641 1026.9 544.962H1030.79C1034.52 540.534 1035.8 536.987 1036.45 528.466Z" stroke="white" stroke-width="1.57"/>
<path d="M1029.41 545.592H1028.03V546.725L1030.17 548.614V551.636H1031.67V547.985L1029.41 546.222V545.592Z" stroke="white" stroke-width="1.57"/>
<path d="M1032.55 552.266H1029.41V554.658H1032.55V552.266Z" stroke="white" stroke-width="1.57"/>
<path fill-rule="evenodd" clip-rule="evenodd" d="M1028.53 555.289H1033.68L1035.32 563.349V565.112L1032.93 566.875H1029.41L1026.9 565.112V563.349L1028.53 555.289ZM1031.67 561.46H1030.54L1029.16 563.097V564.23L1030.54 565.49H1031.67L1032.93 564.23V563.097L1031.67 561.46Z" stroke="white" stroke-width="1.57"/>
<path d="M1061.97 526.351H1055.25V575.93H1056.51V528.031H1061.97V526.351Z" fill="white"/>
<path fill-rule="evenodd" clip-rule="evenodd" d="M1017.33 578.661H1056.83V618.997C1055.24 622.365 1053.36 623.458 1048.84 624.459H1031.2C1020.41 621.46 1016.29 617.177 1011.87 605.552C1011.01 598.496 1011.04 594.541 1011.87 587.485C1012.66 582.542 1013.99 580.749 1017.33 578.661ZM1035.92 611.224C1029.54 611.344 1024.63 605.841 1024.58 599.459C1024.52 593.017 1029.48 587.364 1035.92 587.485C1042.25 587.604 1046.9 593.129 1046.85 599.459C1046.79 605.728 1042.19 611.106 1035.92 611.224ZM1029.62 599.459C1029.62 603.18 1032.2 606.482 1035.92 606.602C1039.75 606.725 1042.64 603.29 1042.64 599.459C1042.64 595.628 1039.75 592.193 1035.92 592.317C1032.2 592.436 1029.62 595.739 1029.62 599.459Z" fill="white"/>
<path d="M1037.71 286.202H988.546L991.908 323.597H1012.5H1033.08L1037.71 286.202Z" fill="white"/>
<path d="M1033.08 327.379H991.907V339.984H1033.08V327.379Z" fill="white"/>
<path fill-rule="evenodd" clip-rule="evenodd" d="M991.907 343.766H1033.08V347.127C1022.77 353.716 1019.23 356.877 1017.54 361.413L1020.06 406.371V417.295C1019.15 421.999 1017.59 423.771 1013.34 425.698C1009.24 424.906 1007.41 423.275 1005.35 417.295L1006.19 406.371L1008.29 361.413C1006.68 356.061 1001.5 352.858 991.907 347.127V343.766ZM1010.39 419.396C1010.45 417.926 1010.76 417.335 1012.5 417.295C1014.13 417.229 1014.43 417.867 1014.6 419.396L1012.5 421.497L1010.39 419.396Z" fill="white"/>
<path d="M1037.71 286.202H988.546L991.908 323.597H1012.5H1033.08L1037.71 286.202Z" stroke="white" stroke-width="1.57"/>
<path d="M1033.08 327.379H991.907V339.984H1033.08V327.379Z" stroke="white" stroke-width="1.57"/>
<path fill-rule="evenodd" clip-rule="evenodd" d="M991.907 343.766H1033.08V347.127C1022.77 353.716 1019.23 356.877 1017.54 361.413L1020.06 406.371V417.295C1019.15 421.999 1017.59 423.771 1013.34 425.698C1009.24 424.906 1007.41 423.275 1005.35 417.295L1006.19 406.371L1008.29 361.413C1006.68 356.061 1001.5 352.858 991.907 347.127V343.766ZM1010.39 419.396C1010.45 417.926 1010.76 417.335 1012.5 417.295C1014.13 417.229 1014.43 417.867 1014.6 419.396L1012.5 421.497L1010.39 419.396Z" stroke="white" stroke-width="1.57"/>
<path d="M1038.13 377.378H1052.41L1049.47 374.437H1047.79V376.117H1043.59V374.437H1041.49L1038.13 377.378Z" fill="white"/>
<path d="M1038.13 383.261V379.479H1053.25V383.261H1038.13Z" fill="white"/>
<path d="M1049.05 384.94H1041.91V392.503L1046.95 389.142V390.403L1041.91 395.445V400.487L1046.95 396.285V398.806L1041.91 403.428V408.47L1046.95 404.688V406.789L1041.91 411.831V416.453L1046.95 413.092V414.772L1041.91 419.814V422.756L1045.69 431.999L1049.05 422.756V384.94Z" fill="white"/>
<path d="M1038.13 377.378H1052.41L1049.47 374.437H1047.79V376.117H1043.59V374.437H1041.49L1038.13 377.378Z" stroke="white" stroke-width="1.57"/>
<path d="M1038.13 383.261V379.479H1053.25V383.261H1038.13Z" stroke="white" stroke-width="1.57"/>
<path d="M1049.05 384.94H1041.91V392.503L1046.95 389.142V390.403L1041.91 395.445V400.487L1046.95 396.285V398.806L1041.91 403.428V408.47L1046.95 404.688V406.789L1041.91 411.831V416.453L1046.95 413.092V414.772L1041.91 419.814V422.756L1045.69 431.999L1049.05 422.756V384.94Z" stroke="white" stroke-width="1.57"/>
<path d="M1180.69 464.956C1179.45 462.066 1179.26 460.361 1180.69 457.028H1049.2C1044.3 460.297 1044.74 462.017 1049.2 464.956H1180.69Z" fill="white"/>
<path d="M1200.26 444.222C1177.25 457.257 1179.41 464.451 1200.87 477.151L1200.26 444.222Z" fill="white"/>
<path d="M1203.93 477.151V444.221L1273.04 426.537V428.367H1274.26V433.245H1273.04V436.903H1274.26V442.392H1273.04V445.441H1274.26V450.319H1273.04V453.978H1274.26V458.856H1273.04V462.515H1274.26V468.003H1273.04V471.662H1274.26V476.54L1217.38 469.833V471.662L1274.26 478.98V485.078L1217.38 476.54V477.761L1274.26 487.517V495.445L1203.93 477.151Z" fill="white"/>
<path d="M1180.69 464.956C1179.45 462.066 1179.26 460.361 1180.69 457.028H1049.2C1044.3 460.297 1044.74 462.017 1049.2 464.956H1180.69Z" stroke="white" stroke-width="1.57"/>
<path d="M1200.26 444.222C1177.25 457.257 1179.41 464.451 1200.87 477.151L1200.26 444.222Z" stroke="white" stroke-width="1.57"/>
<path d="M1203.93 477.151V444.221L1273.04 426.537V428.367H1274.26V433.245H1273.04V436.903H1274.26V442.392H1273.04V445.441H1274.26V450.319H1273.04V453.978H1274.26V458.856H1273.04V462.515H1274.26V468.003H1273.04V471.662H1274.26V476.54L1217.38 469.833V471.662L1274.26 478.98V485.078L1217.38 476.54V477.761L1274.26 487.517V495.445L1203.93 477.151Z" stroke="white" stroke-width="1.57"/>
<path d="M1098.83 495.398H1092.27L1072.58 582.84H1079.14L1084.25 558.794H1108.31L1103.94 582.84H1109.77L1114.87 558.794L1112.69 547.135L1109.77 552.235H1085.71L1089.35 536.204H1109.77L1108.31 529.646H1090.81L1094.46 514.345H1103.94L1102.48 507.057H1095.92L1098.83 495.398Z" fill="white"/>
<path d="M1138.94 492.485H1090.81C1090.32 491.755 1089.35 489.133 1089.35 484.469H1140.4V490.298L1138.94 492.485Z" fill="white"/>
<path d="M1090.81 481.554L1092.27 478.639H1138.94L1140.4 481.554H1090.81Z" fill="white"/>
<path fill-rule="evenodd" clip-rule="evenodd" d="M1108.31 495.398H1102.48H1101.75L1123.63 582.84H1130.19L1123.63 558.794H1148.42L1154.98 582.84H1160.82L1140.4 495.398H1133.83L1136.02 507.057H1111.23L1108.31 495.398ZM1112.69 514.345L1116.33 528.918H1140.4L1137.48 514.345H1112.69ZM1142.58 536.204H1118.52L1122.17 552.235H1146.96L1142.58 536.204Z" fill="white"/>
<path d="M1098.83 495.398H1092.27L1072.58 582.84H1079.14L1084.25 558.794H1108.31L1103.94 582.84H1109.77L1114.87 558.794L1112.69 547.135L1109.77 552.235H1085.71L1089.35 536.204H1109.77L1108.31 529.646H1090.81L1094.46 514.345H1103.94L1102.48 507.057H1095.92L1098.83 495.398Z" stroke="white" stroke-width="1.57"/>
<path d="M1138.94 492.485H1090.81C1090.32 491.755 1089.35 489.133 1089.35 484.469H1140.4V490.298L1138.94 492.485Z" stroke="white" stroke-width="1.57"/>
<path d="M1090.81 481.554L1092.27 478.639H1138.94L1140.4 481.554H1090.81Z" stroke="white" stroke-width="1.57"/>
<path fill-rule="evenodd" clip-rule="evenodd" d="M1108.31 495.398H1102.48H1101.75L1123.63 582.84H1130.19L1123.63 558.794H1148.42L1154.98 582.84H1160.82L1140.4 495.398H1133.83L1136.02 507.057H1111.23L1108.31 495.398ZM1112.69 514.345L1116.33 528.918H1140.4L1137.48 514.345H1112.69ZM1142.58 536.204H1118.52L1122.17 552.235H1146.96L1142.58 536.204Z" stroke="white" stroke-width="1.57"/>
<path d="M993.168 428.218H991.067V442.924H986.866V445.024H990.647V446.705H986.866V448.386H990.647V450.067H986.866V451.747C988.126 451.888 990.647 452.083 990.647 451.747V453.428H986.866V455.109H990.647V456.369H986.866V458.05H990.647V459.73H986.866V461.831H990.647V463.512H986.866V465.613H990.647V466.873H986.866V468.554H990.647V470.235H986.866V472.335H990.647V473.596H986.866V475.697H990.647V477.377H986.866V478.638H990.647V480.319H986.866V482.419H990.647V483.68H986.866V485.781H990.647V487.041H986.866V489.142H990.647V490.823H986.866V492.503H990.647V494.184H986.866V495.865H990.647V497.546H986.866V499.226H990.647V500.487H986.866V502.588H990.647V504.268H986.866V505.949H990.647V507.63H986.866V509.31H991.488V511.831H989.807V513.932H995.269V511.831H993.168V428.218Z" fill="white"/>
<path d="M995.689 447.546V442.924H1022.16C1030.03 446.982 1033.23 449.749 1034.76 456.369V496.705C1033.16 503.88 1029.91 506.664 1020.48 509.731H995.689V505.109H1020.48C1026.35 503.811 1028.91 501.958 1030.56 494.184V456.369C1028.75 451.357 1026.6 449.379 1020.48 447.546H995.689Z" fill="white"/>
<path d="M994.429 397.967H989.387C987.872 399.09 987.356 399.942 986.866 401.748V406.37C988.308 410.068 988.835 412.088 989.387 415.614V424.017L988.126 426.538H995.689L994.429 424.017V415.614C994.884 412.46 995.433 410.499 997.37 406.37V401.748C996.651 399.495 996.058 398.577 994.429 397.967Z" fill="white"/>
<path d="M993.168 428.218H991.067V442.924H986.866V445.024H990.647V446.705H986.866V448.386H990.647V450.067H986.866V451.747C988.126 451.888 990.647 452.083 990.647 451.747V453.428H986.866V455.109H990.647V456.369H986.866V458.05H990.647V459.73H986.866V461.831H990.647V463.512H986.866V465.613H990.647V466.873H986.866V468.554H990.647V470.235H986.866V472.335H990.647V473.596H986.866V475.697H990.647V477.377H986.866V478.638H990.647V480.319H986.866V482.419H990.647V483.68H986.866V485.781H990.647V487.041H986.866V489.142H990.647V490.823H986.866V492.503H990.647V494.184H986.866V495.865H990.647V497.546H986.866V499.226H990.647V500.487H986.866V502.588H990.647V504.268H986.866V505.949H990.647V507.63H986.866V509.31H991.488V511.831H989.807V513.932H995.269V511.831H993.168V428.218Z" stroke="white" stroke-width="1.57"/>
<path d="M995.689 447.546V442.924H1022.16C1030.03 446.982 1033.23 449.749 1034.76 456.369V496.705C1033.16 503.88 1029.91 506.664 1020.48 509.731H995.689V505.109H1020.48C1026.35 503.811 1028.91 501.958 1030.56 494.184V456.369C1028.75 451.357 1026.6 449.379 1020.48 447.546H995.689Z" stroke="white" stroke-width="1.57"/>
<path d="M994.429 397.967H989.387C987.872 399.09 987.356 399.942 986.866 401.748V406.37C988.308 410.068 988.835 412.088 989.387 415.614V424.017L988.126 426.538H995.689L994.429 424.017V415.614C994.884 412.46 995.433 410.499 997.37 406.37V401.748C996.651 399.495 996.058 398.577 994.429 397.967Z" stroke="white" stroke-width="1.57"/>
<path d="M1147.66 591.243L1138.97 646.147L1144.08 649.226L1149.19 644.095L1154.81 647.174L1158.39 642.042L1164.53 646.147L1168.62 639.99L1174.24 644.095L1179.86 637.937L1184.97 642.042L1190.09 636.399L1195.71 639.99L1200.31 634.346L1205.93 637.937L1210.02 632.294L1216.16 636.399L1221.27 631.267L1225.87 634.346L1230.98 629.215L1236.1 632.294L1241.21 627.162L1246.32 630.241L1251.43 625.623V599.453L1147.66 591.243Z" fill="white"/>
<path fill-rule="evenodd" clip-rule="evenodd" d="M1138.97 672.016H1146.21L1148.86 668.016L1146.21 664.016H1138.97C1140.67 661.335 1141.99 660.311 1145 659.311H1149.35C1152.09 660.225 1153.25 660.94 1154.17 662.84H1191.59C1193.18 660.634 1194.39 660.006 1196.9 659.546H1201.96C1204.87 660.806 1206.04 661.752 1207.03 664.016H1200.27L1197.38 667.781L1200.27 672.252H1207.03C1205.82 674.403 1204.85 675.458 1201.96 676.722H1196.9C1194.12 675.97 1193.01 675.152 1191.59 673.193H1154.17C1153.29 675.227 1152.05 675.947 1149.35 676.958H1145C1141.54 675.371 1140.22 674.285 1138.97 672.016ZM1186.28 670.605H1161.17L1159 668.722V668.016V667.311L1161.17 665.663H1186.28L1188.69 667.781V668.487L1186.28 670.605Z" fill="white"/>
<path fill-rule="evenodd" clip-rule="evenodd" d="M1140.27 591.243H1086.25C1082.75 592.151 1079.65 597.124 1081.62 603.045C1085.32 603.335 1086.82 603.826 1088.83 605.098L1086.25 635.885C1085.19 636.308 1084.18 636.433 1083.22 636.552C1081.45 636.771 1079.87 636.967 1078.54 638.964C1076.48 642.042 1078.54 645.635 1078.54 645.635C1080.4 648.105 1081.19 648.499 1082.54 649.173L1082.65 649.226H1131.01L1133.07 647.687L1142.33 593.809L1140.27 591.243ZM1096.03 633.32L1099.11 606.124C1100.35 603.45 1101.46 602.315 1104.26 600.993H1121.75C1124.37 602.743 1125.26 603.869 1125.87 606.124L1121.75 634.346C1120.51 637.291 1119.41 638.14 1117.12 638.964H1101.17C1098.5 637.636 1097.35 636.43 1096.03 633.32ZM1125.87 635.781L1129.72 606.789L1133.92 606.124L1129.72 634.941L1125.87 635.781Z" fill="white"/>
<path d="M160.588 312.127C160.588 319.92 157.805 326.6 152.238 332.166C144.198 339.959 132.756 343.855 117.912 343.855C105.171 343.855 94.1003 340.701 84.6992 334.393C84.6992 336.743 84.5755 338.475 84.3281 339.588C83.7096 341.443 81.8542 342.371 78.7617 342.371V303.592H85.0703C85.3177 307.55 85.9362 311.261 86.9258 314.725C91.0078 330.682 100.904 338.66 116.613 338.66C120.943 338.66 124.963 337.856 128.674 336.248C136.59 332.785 140.549 326.723 140.549 318.064C140.549 314.972 139.868 312.127 138.508 309.529C135.663 304.334 128.798 299.139 117.912 293.943C105.913 288.377 98.9863 285.037 97.1309 283.924C85.5033 277.244 79.6895 268.709 79.6895 258.318C79.6895 251.268 82.2253 245.206 87.2969 240.135C94.7188 232.589 105.357 228.816 119.211 228.816C130.344 228.816 140.611 231.229 150.012 236.053C150.012 234.939 150.074 233.95 150.197 233.084C150.692 230.857 152.609 229.744 155.949 229.744V262.586H149.641C149.641 255.783 147.971 249.969 144.631 245.145C139.312 237.846 131.519 234.197 121.252 234.197C117.665 234.197 114.325 234.754 111.232 235.867C103.687 238.836 99.9141 244.217 99.9141 252.01C99.9141 255.102 100.594 257.885 101.955 260.359C104.676 265.555 111.418 270.626 122.18 275.574C134.178 281.141 141.167 284.542 143.146 285.779C154.774 292.583 160.588 301.365 160.588 312.127Z" fill="#F69220"/>
<path d="M215.695 265.184C213.345 265.184 211.18 265.617 209.201 266.482C200.542 270.317 195.965 280.151 195.471 295.984L211.984 296.355C217.18 296.603 221.2 296.355 224.045 295.613C229.117 294.253 231.652 290.542 231.652 284.48C231.652 282.007 231.343 279.594 230.725 277.244C228.622 269.204 223.612 265.184 215.695 265.184ZM248.908 323.631C248.166 325.363 247.3 327.094 246.311 328.826C240.126 338.846 230.044 343.855 216.066 343.855C207.779 343.855 200.357 341.876 193.801 337.918C181.802 330.743 175.803 318.93 175.803 302.479C175.803 292.954 178.091 284.604 182.668 277.43C189.842 266.173 200.79 260.545 215.51 260.545C223.303 260.545 230.292 262.153 236.477 265.369C245.754 270.193 250.393 277.244 250.393 286.521C250.393 290.109 249.403 293.077 247.424 295.428C243.218 299.881 232.642 301.922 215.695 301.551L195.471 301.18C195.471 301.303 195.471 301.427 195.471 301.551C196.089 326.29 204.13 338.66 219.592 338.66C221.571 338.66 223.55 338.413 225.529 337.918C234.064 335.939 240.373 330.682 244.455 322.146L248.908 323.631ZM296.408 267.41H283.605L304.943 327.713L319.045 284.295L311.623 262.771H342.98V267.41H330.734L351.145 327.527L370.441 267.41H358.01V262.771H385.1C385.1 263.514 385.038 264.194 384.914 264.812C384.543 266.544 383.12 267.41 380.646 267.41C380.028 267.41 379.41 267.472 378.791 267.596C376.812 267.967 375.204 269.946 373.967 273.533L351.145 342.928H346.877C344.65 342.928 342.857 342.618 341.496 342C339.517 340.887 337.29 336.805 334.816 329.754L321.828 292.273L305.314 342.928H300.49C298.511 342.928 296.903 342.68 295.666 342.186C293.068 341.072 290.471 336.928 287.873 329.754L265.236 267.41H257.258V262.771H296.408V267.41ZM457.463 343.855C448.186 343.732 442.619 338.165 440.764 327.156C439.774 329.63 438.352 331.98 436.496 334.207C430.806 340.639 423.26 343.855 413.859 343.855C410.025 343.855 406.499 343.237 403.283 342C394.748 338.66 390.48 332.042 390.48 322.146C390.48 320.291 390.666 318.497 391.037 316.766C394.13 303.654 410.52 296.912 440.207 296.541V284.666C440.083 271.925 435.012 265.431 424.992 265.184C422.518 265.184 420.415 265.617 418.684 266.482C416.333 267.843 414.354 270.997 412.746 275.945C412.375 277.182 412.066 278.11 411.818 278.729C410.334 282.811 407.674 284.852 403.84 284.852C402.85 284.852 401.861 284.728 400.871 284.48C397.16 283.367 395.305 280.831 395.305 276.873C395.305 274.77 395.985 272.667 397.346 270.564C401.923 263.885 411.695 260.545 426.662 260.545C447.32 260.669 457.772 270.255 458.02 289.305V328.27C458.143 334.331 459.689 337.485 462.658 337.732C466.493 337.609 468.843 333.156 469.709 324.373L474.533 324.559C474.41 327.404 474.038 329.939 473.42 332.166C471.441 339.959 466.122 343.855 457.463 343.855ZM421.467 336.248C423.322 336.248 425.24 335.815 427.219 334.949C433.775 332.104 438.104 326.352 440.207 317.693V301.551C432.909 301.674 426.971 302.293 422.395 303.406C413.488 305.633 409.035 310.952 409.035 319.363C409.035 321.095 409.159 322.703 409.406 324.188C410.643 332.228 414.663 336.248 421.467 336.248ZM699.973 337.361C700.839 337.361 701.581 337.423 702.199 337.547C703.807 337.794 704.611 339.279 704.611 342H675.666L674.367 324.559C673.254 327.156 671.831 329.63 670.1 331.98C664.286 339.897 656.555 343.855 646.906 343.855C629.341 343.732 620.497 333.341 620.373 312.684V267.41H607.57V262.771H638.186V315.652C638.186 317.384 638.309 319.116 638.557 320.848C640.041 330.372 645.236 335.135 654.143 335.135C657.111 335.135 660.018 334.269 662.863 332.537C669.914 328.208 673.625 320.786 673.996 310.271V267.41H661.379V262.771H691.994V337.361H699.973ZM751.184 337.361C752.049 337.361 752.792 337.423 753.41 337.547C755.018 337.794 755.822 339.279 755.822 342H713.889V337.361C716.981 337.361 719.393 337.114 721.125 336.619C724.712 335.63 726.506 332.352 726.506 326.785V267.41H713.889V262.771H743.205L744.133 279.471C745.37 276.626 746.978 273.966 748.957 271.492C755.142 264.194 762.811 260.545 771.965 260.545C776.294 260.545 780.253 261.535 783.84 263.514C792.993 268.338 797.57 277.368 797.57 290.604V337.361H805.549C806.415 337.361 807.157 337.423 807.775 337.547C809.383 337.794 810.188 339.279 810.188 342H767.883V337.361C770.975 337.361 773.387 337.114 775.119 336.619C778.088 335.506 779.572 332.228 779.572 326.785V288.191C779.572 285.47 779.263 282.872 778.645 280.398C776.542 272.977 771.779 269.266 764.357 269.266C761.636 269.266 758.977 270.008 756.379 271.492C749.328 275.574 745.37 282.625 744.504 292.645L744.318 337.361H751.184ZM853.42 236.795C853.42 238.527 852.987 240.258 852.121 241.99C850.018 246.196 846.617 248.299 841.916 248.299C840.184 248.299 838.452 247.928 836.721 247.186C832.391 245.083 830.227 241.619 830.227 236.795C830.227 234.939 830.66 233.146 831.525 231.414C833.752 227.208 837.215 225.105 841.916 225.105C843.648 225.105 845.441 225.538 847.297 226.404C851.379 228.631 853.42 232.094 853.42 236.795ZM820.578 262.771H851.936V340.701C851.936 349.113 850.699 356.287 848.225 362.225C843.648 372.492 835.917 377.625 825.031 377.625C821.32 377.625 817.919 376.945 814.826 375.584C809.383 373.11 806.662 369.523 806.662 364.822C806.662 364.204 806.724 363.523 806.848 362.781C807.837 359.194 810.373 357.4 814.455 357.4C816.929 357.4 818.846 358.204 820.207 359.812C820.949 360.678 821.877 363.338 822.99 367.791C823.856 371.131 825.526 372.801 828 372.801C832.206 372.677 834.37 367.915 834.494 358.514C834.494 357.029 834.432 354.184 834.309 349.979C834.185 344.041 834.123 339.526 834.123 336.434V267.41H820.578V262.771Z" fill="white"/>
<path d="M550.422 291.531H599.592V296.355H586.418V342L567.863 336.99C559.947 341.567 550.793 343.855 540.402 343.855C527.661 343.855 516.281 340.206 506.262 332.908C491.542 322.146 484.182 306.437 484.182 285.779C484.182 268.338 489.748 254.36 500.881 243.846C511.395 233.826 524.507 228.816 540.217 228.816C549.247 228.816 557.782 230.672 565.822 234.383L582.521 231.043L583.449 268.338H578.254C576.151 259.926 573.553 253.185 570.461 248.113C564.523 238.836 555.122 234.197 542.258 234.197C541.021 234.197 539.784 234.259 538.547 234.383C517.395 236.238 506.818 253.618 506.818 286.521C506.818 291.098 507.004 295.366 507.375 299.324C509.973 325.177 521.477 338.104 541.887 338.104C551.659 338.104 559.885 334.826 566.564 328.27V296.355H550.422V291.531Z" fill="#F8911F"/>
<path d="M162.095 409V394.87L149.9 376.6H155.66L165.965 392.71H163.49L173.795 376.6H179.06L166.865 394.87V409H162.095ZM188.686 409.45C186.346 409.45 184.291 408.94 182.521 407.92C180.751 406.87 179.371 405.445 178.381 403.645C177.391 401.815 176.896 399.745 176.896 397.435C176.896 395.095 177.391 393.04 178.381 391.27C179.401 389.5 180.781 388.12 182.521 387.13C184.291 386.11 186.346 385.6 188.686 385.6C191.056 385.6 193.126 386.11 194.896 387.13C196.666 388.12 198.031 389.5 198.991 391.27C199.981 393.04 200.476 395.095 200.476 397.435C200.476 399.745 199.981 401.815 198.991 403.645C198.031 405.445 196.666 406.87 194.896 407.92C193.126 408.94 191.056 409.45 188.686 409.45ZM188.686 405.625C190.096 405.625 191.311 405.28 192.331 404.59C193.381 403.9 194.206 402.94 194.806 401.71C195.406 400.48 195.706 399.04 195.706 397.39C195.706 394.93 195.046 392.995 193.726 391.585C192.436 390.145 190.756 389.425 188.686 389.425C186.646 389.425 184.966 390.145 183.646 391.585C182.356 393.025 181.711 394.96 181.711 397.39C181.711 399.04 181.996 400.48 182.566 401.71C183.166 402.94 183.991 403.9 185.041 404.59C186.121 405.28 187.336 405.625 188.686 405.625ZM212.753 409.45C211.223 409.45 209.873 409.135 208.703 408.505C207.533 407.845 206.618 406.945 205.958 405.805C205.328 404.665 205.013 403.36 205.013 401.89V386.05H209.693V400.81C209.693 402.4 210.083 403.585 210.863 404.365C211.643 405.145 212.753 405.535 214.193 405.535C215.483 405.535 216.623 405.235 217.613 404.635C218.633 404.035 219.428 403.21 219.998 402.16C220.598 401.08 220.898 399.835 220.898 398.425L221.483 403.915C220.733 405.595 219.578 406.945 218.018 407.965C216.488 408.955 214.733 409.45 212.753 409.45ZM221.078 409V403.6H220.898V386.05H225.533V409H221.078ZM232.09 409V386.05H236.545V391.765H236.77V409H232.09ZM236.77 397.03L236.185 391.585C236.725 389.635 237.655 388.15 238.975 387.13C240.295 386.11 241.87 385.6 243.7 385.6C244.39 385.6 244.87 385.66 245.14 385.78V390.19C244.99 390.13 244.78 390.1 244.51 390.1C244.24 390.07 243.91 390.055 243.52 390.055C241.27 390.055 239.575 390.64 238.435 391.81C237.325 392.98 236.77 394.72 236.77 397.03ZM266.473 409.45C263.473 409.45 261.088 408.79 259.318 407.47C257.548 406.15 256.543 404.29 256.303 401.89H260.623C260.833 403.21 261.433 404.23 262.423 404.95C263.443 405.64 264.823 405.985 266.563 405.985C268.093 405.985 269.263 405.715 270.073 405.175C270.883 404.635 271.288 403.87 271.288 402.88C271.288 402.16 271.048 401.56 270.568 401.08C270.118 400.57 269.218 400.15 267.868 399.82L264.178 398.965C261.868 398.395 260.143 397.555 259.003 396.445C257.893 395.305 257.338 393.91 257.338 392.26C257.338 390.19 258.103 388.57 259.633 387.4C261.193 386.2 263.323 385.6 266.023 385.6C268.693 385.6 270.838 386.2 272.458 387.4C274.108 388.6 275.038 390.28 275.248 392.44H270.928C270.748 391.36 270.223 390.535 269.353 389.965C268.513 389.365 267.358 389.065 265.888 389.065C264.508 389.065 263.443 389.32 262.693 389.83C261.973 390.31 261.613 390.985 261.613 391.855C261.613 392.575 261.883 393.175 262.423 393.655C262.993 394.135 263.923 394.54 265.213 394.87L268.993 395.815C271.183 396.355 272.833 397.24 273.943 398.47C275.053 399.67 275.608 401.125 275.608 402.835C275.608 404.905 274.798 406.525 273.178 407.695C271.588 408.865 269.353 409.45 266.473 409.45ZM290.637 409.45C288.327 409.45 286.287 408.94 284.517 407.92C282.777 406.9 281.412 405.49 280.422 403.69C279.432 401.89 278.937 399.82 278.937 397.48C278.937 395.11 279.417 393.04 280.377 391.27C281.367 389.47 282.747 388.075 284.517 387.085C286.287 386.095 288.312 385.6 290.592 385.6C292.812 385.6 294.732 386.08 296.352 387.04C298.002 387.97 299.262 389.275 300.132 390.955C301.032 392.635 301.482 394.63 301.482 396.94C301.482 397.3 301.467 397.645 301.437 397.975C301.437 398.275 301.407 398.59 301.347 398.92H282.087V395.41H298.062L296.892 396.805C296.892 394.345 296.337 392.47 295.227 391.18C294.117 389.89 292.572 389.245 290.592 389.245C288.462 389.245 286.767 389.98 285.507 391.45C284.277 392.89 283.662 394.9 283.662 397.48C283.662 400.09 284.277 402.13 285.507 403.6C286.767 405.07 288.507 405.805 290.727 405.805C292.077 405.805 293.247 405.535 294.237 404.995C295.227 404.425 295.962 403.6 296.442 402.52H300.852C300.102 404.68 298.827 406.375 297.027 407.605C295.257 408.835 293.127 409.45 290.637 409.45ZM306.269 409V386.05H310.724V391.765H310.949V409H306.269ZM310.949 397.03L310.364 391.585C310.904 389.635 311.834 388.15 313.154 387.13C314.474 386.11 316.049 385.6 317.879 385.6C318.569 385.6 319.049 385.66 319.319 385.78V390.19C319.169 390.13 318.959 390.1 318.689 390.1C318.419 390.07 318.089 390.055 317.699 390.055C315.449 390.055 313.754 390.64 312.614 391.81C311.504 392.98 310.949 394.72 310.949 397.03ZM330.33 409L320.97 386.05H325.965L333.615 406.885H331.41L338.97 386.05H343.785L334.47 409H330.33ZM347.27 409V386.05H351.95V409H347.27ZM347.045 381.55V376.285H352.22V381.55H347.045ZM367.972 409.45C365.782 409.45 363.832 408.94 362.122 407.92C360.412 406.87 359.062 405.445 358.072 403.645C357.112 401.845 356.632 399.79 356.632 397.48C356.632 395.17 357.112 393.13 358.072 391.36C359.062 389.56 360.412 388.15 362.122 387.13C363.832 386.11 365.767 385.6 367.927 385.6C369.757 385.6 371.392 385.945 372.832 386.635C374.272 387.325 375.457 388.285 376.387 389.515C377.317 390.745 377.917 392.2 378.187 393.88H373.777C373.477 392.53 372.817 391.45 371.797 390.64C370.807 389.83 369.547 389.425 368.017 389.425C366.697 389.425 365.542 389.755 364.552 390.415C363.562 391.075 362.797 392.005 362.257 393.205C361.717 394.405 361.447 395.83 361.447 397.48C361.447 399.1 361.717 400.525 362.257 401.755C362.797 402.985 363.562 403.945 364.552 404.635C365.542 405.295 366.712 405.625 368.062 405.625C369.532 405.625 370.777 405.235 371.797 404.455C372.847 403.645 373.522 402.565 373.822 401.215H378.232C377.932 402.865 377.302 404.305 376.342 405.535C375.412 406.765 374.227 407.725 372.787 408.415C371.347 409.105 369.742 409.45 367.972 409.45ZM392.678 409.45C390.368 409.45 388.328 408.94 386.558 407.92C384.818 406.9 383.453 405.49 382.463 403.69C381.473 401.89 380.978 399.82 380.978 397.48C380.978 395.11 381.458 393.04 382.418 391.27C383.408 389.47 384.788 388.075 386.558 387.085C388.328 386.095 390.353 385.6 392.633 385.6C394.853 385.6 396.773 386.08 398.393 387.04C400.043 387.97 401.303 389.275 402.173 390.955C403.073 392.635 403.523 394.63 403.523 396.94C403.523 397.3 403.508 397.645 403.478 397.975C403.478 398.275 403.448 398.59 403.388 398.92H384.128V395.41H400.103L398.933 396.805C398.933 394.345 398.378 392.47 397.268 391.18C396.158 389.89 394.613 389.245 392.633 389.245C390.503 389.245 388.808 389.98 387.548 391.45C386.318 392.89 385.703 394.9 385.703 397.48C385.703 400.09 386.318 402.13 387.548 403.6C388.808 405.07 390.548 405.805 392.768 405.805C394.118 405.805 395.288 405.535 396.278 404.995C397.268 404.425 398.003 403.6 398.483 402.52H402.893C402.143 404.68 400.868 406.375 399.068 407.605C397.298 408.835 395.168 409.45 392.678 409.45ZM406.42 415.84V413.5C407.47 413.14 408.19 412.585 408.58 411.835C409 411.115 409.21 410.065 409.21 408.685L411.055 409H406.375V403.465H411.91V407.65C411.91 409.72 411.475 411.46 410.605 412.87C409.765 414.28 408.37 415.27 406.42 415.84ZM441.741 409.45C439.431 409.45 437.316 409.045 435.396 408.235C433.476 407.395 431.811 406.225 430.401 404.725C428.991 403.225 427.881 401.455 427.071 399.415C426.291 397.375 425.901 395.125 425.901 392.665C425.901 389.425 426.576 386.56 427.926 384.07C429.276 381.58 431.136 379.645 433.506 378.265C435.906 376.855 438.636 376.15 441.696 376.15C444.816 376.15 447.561 376.855 449.931 378.265C452.301 379.645 454.161 381.58 455.511 384.07C456.891 386.56 457.581 389.44 457.581 392.71C457.581 395.14 457.176 397.39 456.366 399.46C455.586 401.5 454.491 403.27 453.081 404.77C451.671 406.24 449.991 407.395 448.041 408.235C446.121 409.045 444.021 409.45 441.741 409.45ZM441.696 405.4C443.856 405.4 445.761 404.86 447.411 403.78C449.061 402.67 450.351 401.155 451.281 399.235C452.241 397.315 452.721 395.11 452.721 392.62C452.721 390.16 452.256 388 451.326 386.14C450.396 384.25 449.106 382.795 447.456 381.775C445.806 380.725 443.886 380.2 441.696 380.2C439.506 380.2 437.586 380.725 435.936 381.775C434.316 382.795 433.041 384.235 432.111 386.095C431.211 387.955 430.761 390.13 430.761 392.62C430.761 395.14 431.226 397.36 432.156 399.28C433.086 401.2 434.361 402.7 435.981 403.78C437.631 404.86 439.536 405.4 441.696 405.4ZM470.097 409.45C468.567 409.45 467.217 409.135 466.047 408.505C464.877 407.845 463.962 406.945 463.302 405.805C462.672 404.665 462.357 403.36 462.357 401.89V386.05H467.037V400.81C467.037 402.4 467.427 403.585 468.207 404.365C468.987 405.145 470.097 405.535 471.537 405.535C472.827 405.535 473.967 405.235 474.957 404.635C475.977 404.035 476.772 403.21 477.342 402.16C477.942 401.08 478.242 399.835 478.242 398.425L478.827 403.915C478.077 405.595 476.922 406.945 475.362 407.965C473.832 408.955 472.077 409.45 470.097 409.45ZM478.422 409V403.6H478.242V386.05H482.877V409H478.422ZM489.433 409V386.05H493.888V391.765H494.113V409H489.433ZM494.113 397.03L493.528 391.585C494.068 389.635 494.998 388.15 496.318 387.13C497.638 386.11 499.213 385.6 501.043 385.6C501.733 385.6 502.213 385.66 502.483 385.78V390.19C502.333 390.13 502.123 390.1 501.853 390.1C501.583 390.07 501.253 390.055 500.863 390.055C498.613 390.055 496.918 390.64 495.778 391.81C494.668 392.98 494.113 394.72 494.113 397.03ZM529.847 409.45C527.597 409.45 525.512 409.045 523.592 408.235C521.672 407.395 520.007 406.24 518.597 404.77C517.217 403.27 516.137 401.5 515.357 399.46C514.577 397.42 514.187 395.185 514.187 392.755C514.187 390.325 514.562 388.105 515.312 386.095C516.092 384.055 517.172 382.3 518.552 380.83C519.962 379.33 521.627 378.175 523.547 377.365C525.467 376.555 527.552 376.15 529.802 376.15C532.322 376.15 534.587 376.66 536.597 377.68C538.607 378.67 540.242 380.08 541.502 381.91C542.792 383.74 543.587 385.87 543.887 388.3H539.207C538.817 385.75 537.782 383.77 536.102 382.36C534.452 380.92 532.367 380.2 529.847 380.2C527.717 380.2 525.827 380.725 524.177 381.775C522.557 382.795 521.297 384.25 520.397 386.14C519.497 388 519.047 390.205 519.047 392.755C519.047 395.275 519.497 397.495 520.397 399.415C521.327 401.305 522.602 402.775 524.222 403.825C525.842 404.875 527.717 405.4 529.847 405.4C532.367 405.4 534.467 404.695 536.147 403.285C537.857 401.845 538.892 399.85 539.252 397.3H543.977C543.647 399.76 542.837 401.905 541.547 403.735C540.257 405.535 538.607 406.945 536.597 407.965C534.617 408.955 532.367 409.45 529.847 409.45ZM558.881 409.45C556.541 409.45 554.486 408.94 552.716 407.92C550.946 406.87 549.566 405.445 548.576 403.645C547.586 401.815 547.091 399.745 547.091 397.435C547.091 395.095 547.586 393.04 548.576 391.27C549.596 389.5 550.976 388.12 552.716 387.13C554.486 386.11 556.541 385.6 558.881 385.6C561.251 385.6 563.321 386.11 565.091 387.13C566.861 388.12 568.226 389.5 569.186 391.27C570.176 393.04 570.671 395.095 570.671 397.435C570.671 399.745 570.176 401.815 569.186 403.645C568.226 405.445 566.861 406.87 565.091 407.92C563.321 408.94 561.251 409.45 558.881 409.45ZM558.881 405.625C560.291 405.625 561.506 405.28 562.526 404.59C563.576 403.9 564.401 402.94 565.001 401.71C565.601 400.48 565.901 399.04 565.901 397.39C565.901 394.93 565.241 392.995 563.921 391.585C562.631 390.145 560.951 389.425 558.881 389.425C556.841 389.425 555.161 390.145 553.841 391.585C552.551 393.025 551.906 394.96 551.906 397.39C551.906 399.04 552.191 400.48 552.761 401.71C553.361 402.94 554.186 403.9 555.236 404.59C556.316 405.28 557.531 405.625 558.881 405.625ZM575.478 409V386.05H579.933V391.45H580.158V409H575.478ZM590.958 409V394.015C590.958 392.455 590.598 391.315 589.878 390.595C589.158 389.875 588.123 389.515 586.773 389.515C585.513 389.515 584.373 389.815 583.353 390.415C582.363 390.985 581.583 391.795 581.013 392.845C580.443 393.865 580.158 395.08 580.158 396.49L579.573 391.135C580.323 389.425 581.448 388.075 582.948 387.085C584.478 386.095 586.188 385.6 588.078 385.6C590.358 385.6 592.173 386.26 593.523 387.58C594.903 388.9 595.593 390.64 595.593 392.8V409H590.958ZM606.438 409V394.015C606.438 392.455 606.063 391.315 605.313 390.595C604.593 389.875 603.558 389.515 602.208 389.515C600.978 389.515 599.853 389.815 598.833 390.415C597.843 390.985 597.048 391.795 596.448 392.845C595.878 393.865 595.593 395.08 595.593 396.49L594.648 391.135C595.428 389.425 596.598 388.075 598.158 387.085C599.748 386.095 601.518 385.6 603.468 385.6C605.778 385.6 607.623 386.275 609.003 387.625C610.383 388.945 611.073 390.715 611.073 392.935V409H606.438ZM617.358 409V386.05H621.813V391.45H622.038V409H617.358ZM632.838 409V394.015C632.838 392.455 632.478 391.315 631.758 390.595C631.038 389.875 630.003 389.515 628.653 389.515C627.393 389.515 626.253 389.815 625.233 390.415C624.243 390.985 623.463 391.795 622.893 392.845C622.323 393.865 622.038 395.08 622.038 396.49L621.453 391.135C622.203 389.425 623.328 388.075 624.828 387.085C626.358 386.095 628.068 385.6 629.958 385.6C632.238 385.6 634.053 386.26 635.403 387.58C636.783 388.9 637.473 390.64 637.473 392.8V409H632.838ZM648.318 409V394.015C648.318 392.455 647.943 391.315 647.193 390.595C646.473 389.875 645.438 389.515 644.088 389.515C642.858 389.515 641.733 389.815 640.713 390.415C639.723 390.985 638.928 391.795 638.328 392.845C637.758 393.865 637.473 395.08 637.473 396.49L636.528 391.135C637.308 389.425 638.478 388.075 640.038 387.085C641.628 386.095 643.398 385.6 645.348 385.6C647.658 385.6 649.503 386.275 650.883 387.625C652.263 388.945 652.953 390.715 652.953 392.935V409H648.318ZM659.15 409V386.05H663.83V409H659.15ZM658.925 381.55V376.285H664.1V381.55H658.925ZM679.989 409.45C677.319 409.45 675.354 408.835 674.094 407.605C672.864 406.345 672.249 404.5 672.249 402.07V380.785L676.884 379.03V402.115C676.884 403.315 677.199 404.2 677.829 404.77C678.459 405.34 679.479 405.625 680.889 405.625C681.429 405.625 681.909 405.58 682.329 405.49C682.749 405.4 683.109 405.295 683.409 405.175V408.955C683.079 409.105 682.614 409.225 682.014 409.315C681.414 409.405 680.739 409.45 679.989 409.45ZM667.659 389.785V386.05H683.409V389.785H667.659ZM687.847 409V386.05H692.302V391.45H692.527V409H687.847ZM703.327 409V394.015C703.327 392.455 702.967 391.315 702.247 390.595C701.527 389.875 700.492 389.515 699.142 389.515C697.882 389.515 696.742 389.815 695.722 390.415C694.732 390.985 693.952 391.795 693.382 392.845C692.812 393.865 692.527 395.08 692.527 396.49L691.942 391.135C692.692 389.425 693.817 388.075 695.317 387.085C696.847 386.095 698.557 385.6 700.447 385.6C702.727 385.6 704.542 386.26 705.892 387.58C707.272 388.9 707.962 390.64 707.962 392.8V409H703.327ZM718.807 409V394.015C718.807 392.455 718.432 391.315 717.682 390.595C716.962 389.875 715.927 389.515 714.577 389.515C713.347 389.515 712.222 389.815 711.202 390.415C710.212 390.985 709.417 391.795 708.817 392.845C708.247 393.865 707.962 395.08 707.962 396.49L707.017 391.135C707.797 389.425 708.967 388.075 710.527 387.085C712.117 386.095 713.887 385.6 715.837 385.6C718.147 385.6 719.992 386.275 721.372 387.625C722.752 388.945 723.442 390.715 723.442 392.935V409H718.807ZM739.626 409.45C737.316 409.45 735.276 408.94 733.506 407.92C731.766 406.9 730.401 405.49 729.411 403.69C728.421 401.89 727.926 399.82 727.926 397.48C727.926 395.11 728.406 393.04 729.366 391.27C730.356 389.47 731.736 388.075 733.506 387.085C735.276 386.095 737.301 385.6 739.581 385.6C741.801 385.6 743.721 386.08 745.341 387.04C746.991 387.97 748.251 389.275 749.121 390.955C750.021 392.635 750.471 394.63 750.471 396.94C750.471 397.3 750.456 397.645 750.426 397.975C750.426 398.275 750.396 398.59 750.336 398.92H731.076V395.41H747.051L745.881 396.805C745.881 394.345 745.326 392.47 744.216 391.18C743.106 389.89 741.561 389.245 739.581 389.245C737.451 389.245 735.756 389.98 734.496 391.45C733.266 392.89 732.651 394.9 732.651 397.48C732.651 400.09 733.266 402.13 734.496 403.6C735.756 405.07 737.496 405.805 739.716 405.805C741.066 405.805 742.236 405.535 743.226 404.995C744.216 404.425 744.951 403.6 745.431 402.52H749.841C749.091 404.68 747.816 406.375 746.016 407.605C744.246 408.835 742.116 409.45 739.626 409.45ZM755.259 409V386.05H759.714V391.45H759.939V409H755.259ZM771.549 409V394.24C771.549 392.65 771.144 391.465 770.334 390.685C769.554 389.905 768.384 389.515 766.824 389.515C765.474 389.515 764.274 389.815 763.224 390.415C762.204 391.015 761.394 391.84 760.794 392.89C760.224 393.94 759.939 395.185 759.939 396.625L759.354 391.135C760.104 389.425 761.259 388.075 762.819 387.085C764.379 386.095 766.194 385.6 768.264 385.6C770.724 385.6 772.659 386.29 774.069 387.67C775.479 389.05 776.184 390.88 776.184 393.16V409H771.549ZM791.567 409.45C788.897 409.45 786.932 408.835 785.672 407.605C784.442 406.345 783.827 404.5 783.827 402.07V380.785L788.462 379.03V402.115C788.462 403.315 788.777 404.2 789.407 404.77C790.037 405.34 791.057 405.625 792.467 405.625C793.007 405.625 793.487 405.58 793.907 405.49C794.327 405.4 794.687 405.295 794.987 405.175V408.955C794.657 409.105 794.192 409.225 793.592 409.315C792.992 409.405 792.317 409.45 791.567 409.45ZM779.237 389.785V386.05H794.987V389.785H779.237Z" fill="white"/>
<path d="M1537 238C1405 238 1317.5 127.5 1317.5 0" stroke="white" stroke-width="2"/>
</svg>
